# xmcd CD database file
#
# Track frame offsets:
#	150
#	12618
#	27590
#	40977
#	57214
#	67713
#	87481
#	101865
#	140257
#	162789
#	181497
#	198067
#	227339
#	241014
#	255365
#	278616
#	297426
#	312063
#	326613
#
# Disc length: 4646 seconds
#
# Revision: 1
# Processed by: cddbd v1.5.1PL2 Copyright (c) Steve Scherf et al.
# Submitted via: CDex 1.51
#
DISCID=fb122413
DTITLE=Various Artist - Pure Jazz Chillout CD 2
DYEAR=2002
DGENRE=Jazz
TTITLE0=Nat King Cole and George Sharing Quintett - Let There Be Love
TTITLE1=Peggy Lee - Fever
TTITLE2=Julie London - Cry Me A River
TTITLE3=Sarah Vaughan - Ev'ry Time We Say Goodbye
TTITLE4=Chet Baker - My Funny Valentine
TTITLE5=Miles Davis - It Ain't Necessarily So
TTITLE6=Thelonious Monk - 'Round Midnight
TTITLE7=Stanley Turrentine- Since Feel For You 2
TTITLE8=Cassandra Wilson - Harvest Moon
TTITLE9=Nina Simone - I Love You Porgy
TTITLE10=Billy Taylor Trio - I Wish I Knew (How It Would Feel To Be Free)
TTITLE11=Eliane Elias - The Girl From Ipanema
TTITLE12=Nat King Cole - I Get A Kick Out Of You
TTITLE13=Louis Aermstrong - We Have All The Time In The World
TTITLE14=Lee Morgan - The Sidewinder
TTITLE15=Charlie Hunter Feat. Norah Jones - More Than This
TTITLE16=Gerald Albright - Can You Stop The Rain
TTITLE17=Marc Jordan - Marina Del Rey
TTITLE18=Hiroshima - One Wish
EXTD=YEAR: 2002
EXTT0=
EXTT1=
EXTT2=
EXTT3=
EXTT4=
EXTT5=
EXTT6=
EXTT7=
EXTT8=
EXTT9=
EXTT10=
EXTT11=
EXTT12=
EXTT13=
EXTT14=
EXTT15=
EXTT16=
EXTT17=
EXTT18=
PLAYORDER=
